<?xml version="1.0" encoding="utf-8"?>
<!-- Generator: Adobe Illustrator 25.0.0, SVG Export Plug-In . SVG Version: 6.00 Build 0)  -->
<svg version="1.1" id="Layer_1" xmlns="http://www.w3.org/2000/svg" xmlns:xlink="http://www.w3.org/1999/xlink" x="0px" y="0px"
	 viewBox="0 0 138.2 61.2" style="enable-background:new 0 0 138.2 61.2;" xml:space="preserve">
<style type="text/css">
	.st0{enable-background:new    ;}
	.st1{fill:#1D1D1B;}
</style>
<g id="Layer_2_1_">
	<g id="Layer_1-2">
		<g class="st0">
			<path class="st1" d="M23.8,18.5l-1.7,2c-1.2-0.9-2.3-1.5-3.3-2c-1-0.4-2.4-0.6-4-0.6c-2.8,0-5,0.9-6.8,2.8s-2.6,4.5-2.6,7.9
				c0,2.3,0.4,4.3,1.3,5.9c0.8,1.7,2,2.9,3.4,3.8c1.4,0.9,3,1.3,4.8,1.3c1.6,0,3-0.3,4.3-0.8c1.2-0.5,2.4-1.2,3.5-2.1l1.6,1.9
				c-1,0.9-2.3,1.8-3.9,2.5s-3.4,1.1-5.5,1.1c-2.4,0-4.5-0.5-6.3-1.6c-1.9-1-3.4-2.6-4.4-4.7C3,34,2.5,31.5,2.5,28.7
				c0-2.8,0.6-5.2,1.7-7.2c1.1-2,2.6-3.5,4.5-4.6c1.9-1,3.9-1.5,6.1-1.5C18.3,15.4,21.3,16.4,23.8,18.5z"/>
		</g>
		<g class="st0">
			<path class="st1" d="M45.8,16.8c1.8,1,3.3,2.5,4.4,4.5c1.1,2,1.7,4.5,1.7,7.5c0,3-0.6,5.5-1.7,7.5c-1.1,2-2.6,3.5-4.4,4.5
				c-1.8,1-3.9,1.4-6.1,1.4c-2.2,0-4.3-0.5-6.1-1.4c-1.8-1-3.3-2.5-4.4-4.5c-1.1-2-1.7-4.5-1.7-7.5c0-3,0.6-5.5,1.7-7.5
				c1.1-2,2.6-3.5,4.4-4.5c1.8-1,3.9-1.4,6.1-1.4C41.9,15.4,43.9,15.9,45.8,16.8z M33,20.8c-1.7,1.9-2.5,4.6-2.5,8
				c0,3.4,0.8,6,2.5,8c1.7,1.9,3.9,2.9,6.7,2.9c2.8,0,5.1-1,6.7-2.9c1.7-2,2.5-4.6,2.5-7.9c0-3.3-0.8-6-2.5-7.9
				c-1.7-2-3.9-2.9-6.7-2.9C36.9,17.9,34.6,18.9,33,20.8z"/>
			<path class="st1" d="M61.6,19.3L61.6,19.3c1.1-1.2,2.4-2.2,3.9-2.9c1.5-0.7,3.1-1,4.8-1c2.1,0,4,0.5,5.6,1.5
				c1.6,1,2.9,2.5,3.8,4.4c0.9,1.9,1.4,4.3,1.4,7c0,4.4-1.1,7.8-3.2,10.2s-5.1,3.7-8.7,3.7c-1.5,0-2.9-0.3-4.2-0.9
				c-1.3-0.6-2.5-1.5-3.4-2.6h-0.1l-0.6,2.9h-2V4.8h2.8V19.3z M65.7,19.1c-1.3,0.8-2.7,2-4.1,3.8v12.8c0.8,1.2,1.8,2.2,3.1,2.9
				c1.3,0.7,2.9,1.1,4.7,1.1c1.7,0,3.2-0.5,4.5-1.4c1.3-0.9,2.4-2.2,3.1-4c0.8-1.7,1.1-3.7,1.1-6c0-2.2-0.4-4-1.1-5.6
				s-1.7-2.8-2.9-3.6c-1.2-0.8-2.6-1.2-4.1-1.2C68.5,17.9,67,18.3,65.7,19.1z"/>
		</g>
		<g class="st0">
			<path class="st1" d="M87.9,16h2.2l0.5,3.8h0.1c0.6-1.4,1.4-2.5,2.5-3.3c1.1-0.7,2.4-1.1,3.9-1.1c1.1,0,2,0.2,2.5,0.5l-0.5,2.6
				c-0.8-0.2-1.7-0.3-2.6-0.3c-2.7,0-4.6,1.8-5.9,5.5v17.9h-2.7V16z"/>
		</g>
		<g class="st0">
			<path class="st1" d="M125.1,39.6l-0.3,1.9c-0.5,0.2-1.1,0.3-1.8,0.3c-1.1,0-2-0.3-2.5-0.9c-0.6-0.6-1-1.5-1.1-2.8
				c-1.1,1.3-2.4,2.3-4,3c-1.6,0.7-3.3,1.1-5.1,1.1c-2.4,0-4.3-0.6-5.8-1.8c-1.5-1.2-2.3-2.9-2.3-5.3c0-2.6,1-4.6,3-5.8
				c2-1.2,4.5-1.8,7.5-1.8c1.8,0,4,0.2,6.8,0.7v-4.2c0-2.1-0.6-3.7-1.9-4.7c-1.3-1-2.9-1.5-4.9-1.5c-2.6,0-5.1,0.9-7.4,2.7l-1.4-1.9
				c1.3-1.1,2.7-1.9,4.2-2.5c1.5-0.6,3.2-0.9,5-0.9c3,0,5.3,0.7,6.9,2.2c1.6,1.5,2.4,3.7,2.4,6.7v13.2c0,0.7,0.1,1.2,0.4,1.6
				c0.3,0.4,0.7,0.6,1.4,0.6C124.4,39.7,124.8,39.7,125.1,39.6z M115.5,38.5c1.6-0.8,2.8-1.9,3.8-3.2v-4.4c-2.6-0.4-4.9-0.6-6.8-0.6
				c-2.2,0-3.9,0.4-5.4,1.2c-1.4,0.8-2.1,2-2.1,3.7c0,1.6,0.6,2.7,1.7,3.5s2.5,1.1,4,1.1C112.4,39.7,114,39.3,115.5,38.5z"/>
		</g>
		<g class="st0">
			<path class="st1" d="M8.3,45.8c0.5,0.2,0.9,0.4,1.4,0.7l-0.4,0.7c-0.9-0.6-1.8-0.9-2.7-0.9c-0.8,0-1.4,0.2-1.9,0.5
				C4.3,47.1,4,47.6,4,48.2c0,0.4,0.1,0.7,0.4,1c0.2,0.3,0.5,0.5,0.9,0.7c0.3,0.2,0.8,0.4,1.5,0.7c0.8,0.3,1.3,0.6,1.7,0.8
				c0.4,0.2,0.7,0.5,1,0.9c0.3,0.4,0.4,0.8,0.4,1.3c0,0.6-0.1,1.1-0.4,1.5c-0.3,0.4-0.7,0.8-1.2,1s-1.2,0.4-1.9,0.4
				c-0.6,0-1.2-0.1-1.9-0.3c-0.6-0.2-1.2-0.4-1.7-0.7l0.4-0.7c0.5,0.3,1,0.5,1.5,0.6s1.1,0.2,1.6,0.2c0.9,0,1.6-0.2,2.1-0.5
				C8.8,54.6,9,54.2,9,53.6c0-0.4-0.1-0.7-0.4-1c-0.2-0.3-0.5-0.5-0.9-0.7c-0.3-0.2-0.8-0.4-1.5-0.6c-0.7-0.3-1.3-0.6-1.7-0.8
				c-0.4-0.2-0.8-0.5-1.1-0.9c-0.3-0.4-0.5-0.8-0.5-1.4c0-0.5,0.1-1,0.4-1.3c0.3-0.4,0.7-0.7,1.2-0.9c0.5-0.2,1.1-0.3,1.8-0.3
				C7.2,45.5,7.8,45.6,8.3,45.8z"/>
			<path class="st1" d="M32.2,46.5h-5.6v3.9h5v0.8h-5v4.2h5.6v0.8h-6.5V45.7h6.5V46.5z"/>
			<path class="st1" d="M54.5,56.2l-2.6-4.3h-0.3H49v4.3h-0.9V45.7h3.4c1.2,0,2.1,0.3,2.7,0.8s0.8,1.3,0.8,2.1c0,0.8-0.2,1.4-0.5,2
				c-0.4,0.6-0.9,1-1.7,1.2l2.7,4.4H54.5z M51.8,51.1c0.7,0,1.3-0.2,1.7-0.7c0.4-0.4,0.6-1,0.6-1.7c0-0.8-0.2-1.3-0.6-1.7
				s-1.1-0.6-2.1-0.6H49v4.6H51.8z"/>
			<path class="st1" d="M69.9,45.7h1l3.7,9.8l3.6-9.8h1l-4,10.5h-1.2L69.9,45.7z"/>
			<path class="st1" d="M101,46.5h-5.6v3.9h5v0.8h-5v4.2h5.6v0.8h-6.5V45.7h6.5V46.5z"/>
			<path class="st1" d="M123.2,56.2l-2.6-4.3h-0.3h-2.6v4.3h-0.9V45.7h3.4c1.2,0,2.1,0.3,2.7,0.8s0.8,1.3,0.8,2.1
				c0,0.8-0.2,1.4-0.5,2c-0.4,0.6-0.9,1-1.7,1.2l2.7,4.4H123.2z M120.5,51.1c0.7,0,1.3-0.2,1.7-0.7c0.4-0.4,0.6-1,0.6-1.7
				c0-0.8-0.2-1.3-0.6-1.7s-1.1-0.6-2.1-0.6h-2.4v4.6H120.5z"/>
		</g>
	</g>
</g>
</svg>
