<?xml version="1.0" standalone="no"?>
<!DOCTYPE svg PUBLIC "-//W3C//DTD SVG 20010904//EN"
 "http://www.w3.org/TR/2001/REC-SVG-20010904/DTD/svg10.dtd">
<svg version="1.0" xmlns="http://www.w3.org/2000/svg"
 width="700.000000pt" height="700.000000pt" viewBox="0 0 700.000000 700.000000"
 preserveAspectRatio="xMidYMid meet">
<metadata>
Created by potrace 1.11, written by Peter Selinger 2001-2013
</metadata>
<g transform="translate(0.000000,700.000000) scale(0.100000,-0.100000)"
fill="#000000" stroke="none">
<path d="M3359 6996 c-2 -2 -31 -6 -64 -9 -53 -6 -155 -23 -238 -41 -141 -31
-391 -136 -542 -227 -136 -82 -331 -239 -354 -286 -18 -36 -13 -104 12 -147
38 -68 59 -75 252 -78 191 -4 217 -11 255 -74 22 -34 23 -47 25 -277 2 -214 5
-251 24 -322 51 -186 167 -351 319 -457 50 -35 196 -105 232 -111 61 -12 60
-10 60 -137 l0 -118 -122 -62 c-68 -34 -135 -74 -150 -88 -55 -54 -41 -159 30
-226 23 -22 44 -30 81 -34 47 -4 61 1 194 68 l144 72 124 -62 c68 -34 126 -66
127 -71 2 -5 25 -9 51 -9 96 0 165 86 151 188 -4 23 -15 55 -26 70 -20 27
-102 73 -222 125 l-63 27 3 122 c3 114 4 123 23 126 11 2 52 15 90 29 245 92
425 291 497 551 18 67 21 108 23 319 3 276 7 291 83 330 38 19 60 21 199 23
139 1 161 3 194 22 72 40 102 148 60 212 -50 76 -256 233 -432 329 -178 97
-405 173 -619 207 -68 11 -412 24 -421 16z m271 -320 c211 -20 358 -60 534
-145 l99 -48 -54 -31 c-107 -61 -190 -170 -218 -288 -7 -29 -13 -148 -15 -284
-3 -253 -8 -288 -58 -382 -76 -143 -222 -232 -398 -243 -172 -10 -346 84 -433
233 -53 92 -59 128 -63 386 -4 261 -11 307 -66 406 -35 63 -137 169 -186 194
-32 16 -33 18 -15 31 10 8 25 15 34 15 8 0 19 4 25 9 26 24 293 111 384 125
19 3 46 8 60 11 14 3 63 8 110 11 47 4 86 7 87 8 4 3 104 -2 173 -8z"/>
<path d="M5060 5889 c-86 -36 -123 -128 -89 -222 20 -53 64 -226 74 -284 3
-18 7 -45 9 -60 23 -145 24 -398 2 -464 -3 -8 -7 -30 -9 -49 -7 -54 -35 -157
-69 -250 -68 -189 -166 -347 -328 -530 -260 -293 -445 -575 -590 -900 -103
-229 -196 -547 -226 -767 -3 -26 -8 -55 -9 -64 -12 -62 -19 -229 -19 -429 0
-258 11 -326 69 -455 108 -235 336 -408 595 -451 25 -4 326 -8 670 -9 711 -1
688 1 780 -82 77 -70 104 -129 105 -233 0 -97 -22 -156 -84 -223 -36 -39 -114
-82 -166 -92 -34 -6 -1247 -7 -1313 0 -422 40 -797 261 -1045 613 -87 123
-183 343 -217 497 -26 122 -31 186 -35 450 -2 127 -6 255 -9 285 -3 30 -8 75
-10 100 -2 25 -12 90 -21 145 -96 568 -350 1092 -741 1530 -125 141 -165 190
-217 270 -170 265 -253 552 -254 880 -1 197 19 326 78 499 39 115 42 128 31
164 -40 133 -179 166 -274 65 -45 -48 -107 -261 -145 -493 -9 -62 -10 -379 0
-465 7 -57 43 -239 61 -305 41 -148 132 -347 226 -496 32 -51 63 -98 69 -106
6 -7 34 -42 63 -78 28 -36 59 -72 67 -80 18 -17 102 -109 146 -160 17 -19 49
-60 72 -90 24 -30 47 -60 53 -67 30 -36 149 -228 195 -316 92 -174 190 -424
220 -557 1 -8 8 -33 14 -55 5 -22 13 -56 16 -75 3 -19 10 -53 15 -75 27 -126
40 -303 45 -595 4 -235 6 -266 36 -415 88 -437 338 -816 720 -1087 158 -113
408 -222 604 -264 73 -16 89 -18 195 -33 36 -5 362 -10 725 -10 534 0 671 2
720 14 235 55 427 244 481 472 73 308 -87 618 -381 740 -106 44 -139 46 -800
48 -567 1 -636 3 -688 18 -109 33 -195 95 -255 185 -73 108 -85 169 -84 402 1
227 9 314 48 545 10 59 45 191 72 270 14 44 27 82 27 85 3 11 18 49 57 145
112 272 303 576 508 805 36 40 75 85 88 99 197 221 379 584 428 851 4 25 8 47
9 50 1 3 5 30 9 60 5 30 11 64 13 75 3 11 7 99 8 195 4 167 -4 248 -39 413 -3
15 -8 39 -11 53 -11 52 -68 220 -91 269 -14 30 -38 60 -59 74 -39 26 -107 36
-145 20z"/>
<path d="M3099 3958 c-51 -29 -73 -71 -73 -139 0 -44 5 -64 24 -92 44 -65 58
-67 452 -67 330 0 354 1 393 20 54 26 79 70 79 141 0 44 -5 64 -24 92 -45 66
-58 68 -458 67 -342 -1 -359 -2 -393 -22z"/>
<path d="M3311 3338 c-23 -4 -54 -16 -70 -27 -59 -43 -76 -158 -31 -221 42
-59 64 -64 290 -64 188 -1 208 1 239 19 48 29 70 63 76 120 4 40 1 59 -17 95
-37 73 -67 82 -273 84 -95 1 -191 -2 -214 -6z"/>
<path d="M5690 2843 c-50 -18 -202 -97 -308 -159 -323 -192 -565 -436 -692
-699 -47 -95 -80 -198 -80 -244 0 -32 35 -96 66 -120 36 -28 85 -36 142 -22
62 16 95 56 123 145 50 165 166 326 355 492 44 39 65 52 61 39 -4 -11 -20 -76
-37 -145 -58 -242 -66 -386 -26 -454 30 -51 88 -85 135 -80 80 10 148 78 157
157 9 89 15 133 19 157 2 14 6 41 9 61 23 158 138 454 239 611 43 68 51 96 43
143 -16 84 -125 147 -206 118z"/>
<path d="M3453 2698 c-69 -18 -123 -108 -109 -182 8 -43 54 -99 96 -116 39
-16 115 -8 148 17 69 52 88 123 53 197 -35 71 -109 105 -188 84z"/>
<path d="M3455 2063 c-70 -19 -122 -104 -110 -180 14 -94 116 -153 210 -120
82 29 127 133 90 211 -33 69 -118 109 -190 89z"/>
<path d="M3585 1414 c-74 -37 -105 -141 -64 -214 83 -148 306 -85 294 84 -7
112 -128 180 -230 130z"/>
<path d="M1257 1274 c-1 -1 -30 -4 -63 -7 -206 -20 -410 -169 -500 -366 -129
-280 -35 -614 222 -789 71 -49 115 -68 204 -93 60 -16 141 -18 1083 -18 1003
-1 1018 -1 1057 19 107 55 106 227 -2 278 -42 21 -56 21 -1033 21 -545 0
-1003 3 -1018 6 -88 17 -184 93 -220 174 -29 63 -29 67 -29 146 0 122 63 220
179 277 l67 32 695 1 696 1 37 22 c81 50 95 186 26 252 -13 12 -34 27 -48 32
-16 7 -253 11 -688 12 -365 0 -664 0 -665 0z"/>
<path d="M4103 949 c-122 -25 -165 -177 -76 -264 81 -78 198 -58 250 45 58
113 -47 246 -174 219z"/>
<path d="M4725 786 c-50 -18 -73 -40 -94 -85 -32 -72 -12 -148 51 -193 48 -34
141 -33 185 2 89 70 83 207 -12 261 -40 23 -93 30 -130 15z"/>
<path d="M5370 790 c-42 -12 -70 -33 -92 -68 -99 -160 110 -327 243 -193 92
91 38 246 -91 264 -19 3 -46 1 -60 -3z"/>
</g>
</svg>
